<svg width="10" height="10" viewBox="0 0 10 10" fill="none" xmlns="http://www.w3.org/2000/svg">
<path fill-rule="evenodd" clip-rule="evenodd" d="M9.3075 0.693284C9.69802 1.08381 9.69802 1.71697 9.3075 2.1075L2.1075 9.3075C1.71697 9.69802 1.08381 9.69802 0.693284 9.3075C0.30276 8.91697 0.30276 8.28381 0.693284 7.89328L7.89328 0.693284C8.28381 0.30276 8.91697 0.30276 9.3075 0.693284Z" fill="#C3B9B5"/>
<path fill-rule="evenodd" clip-rule="evenodd" d="M0.693284 0.693284C1.08381 0.30276 1.71697 0.30276 2.1075 0.693284L9.3075 7.89328C9.69802 8.28381 9.69802 8.91697 9.3075 9.3075C8.91697 9.69802 8.28381 9.69802 7.89328 9.3075L0.693284 2.1075C0.30276 1.71697 0.30276 1.08381 0.693284 0.693284Z" fill="#C3B9B5"/>
</svg>
